<svg width="61" height="61" viewBox="0 0 61 61" fill="none" xmlns="http://www.w3.org/2000/svg">
<rect x="3" y="3" width="55" height="55" rx="27.5" stroke="#D5D7DA" stroke-width="5"/>
<path d="M22.4023 42.9648V38.707C24.2253 40.1523 26.2826 40.875 28.5742 40.875C30.4362 40.875 31.9206 40.4518 33.0273 39.6055C34.1471 38.7591 34.707 37.6133 34.707 36.168C34.707 32.9909 32.2786 31.4023 27.4219 31.4023H25.2539V27.7695H27.3242C31.6341 27.7695 33.7891 26.2721 33.7891 23.2773C33.7891 20.5169 32.1094 19.1367 28.75 19.1367C26.875 19.1367 25.1107 19.8073 23.457 21.1484V17.125C25.3581 16.0573 27.6042 15.5234 30.1953 15.5234C32.6823 15.5234 34.6745 16.1484 36.1719 17.3984C37.6693 18.6484 38.418 20.25 38.418 22.2031C38.418 25.888 36.543 28.2578 32.793 29.3125V29.3906C34.8112 29.5859 36.4062 30.2956 37.5781 31.5195C38.75 32.7305 39.3359 34.2474 39.3359 36.0703C39.3359 38.5833 38.3919 40.6146 36.5039 42.1641C34.6159 43.7005 32.1289 44.4688 29.043 44.4688C26.2695 44.4688 24.056 43.9674 22.4023 42.9648Z" fill="#A4A7AE"/>
</svg>
