<svg width="61" height="61" viewBox="0 0 61 61" fill="none" xmlns="http://www.w3.org/2000/svg">
<rect x="3" y="3" width="55" height="55" rx="27.5" stroke="#D5D7DA" stroke-width="5"/>
<path d="M39.4922 44H21.9141V41.832C21.9141 40.9466 22.0378 40.1198 22.2852 39.3516C22.5326 38.5703 22.8646 37.8411 23.2812 37.1641C23.6979 36.474 24.1862 35.8294 24.7461 35.2305C25.306 34.6185 25.9049 34.0326 26.543 33.4727C27.181 32.8997 27.832 32.3529 28.4961 31.832C29.1602 31.2982 29.8112 30.7643 30.4492 30.2305C31.0482 29.7227 31.5951 29.2279 32.0898 28.7461C32.5846 28.2513 33.0078 27.7435 33.3594 27.2227C33.7109 26.7018 33.9844 26.1549 34.1797 25.582C34.375 24.9961 34.4727 24.3646 34.4727 23.6875C34.4727 22.9453 34.3555 22.3008 34.1211 21.7539C33.8997 21.194 33.5807 20.7318 33.1641 20.3672C32.7604 19.9896 32.2786 19.7096 31.7188 19.5273C31.1589 19.332 30.5469 19.2344 29.8828 19.2344C28.737 19.2344 27.5716 19.5013 26.3867 20.0352C25.2018 20.569 24.0625 21.3698 22.9688 22.4375V18.082C23.5417 17.6523 24.1211 17.2812 24.707 16.9688C25.293 16.6432 25.8984 16.3763 26.5234 16.168C27.1484 15.9466 27.806 15.7839 28.4961 15.6797C29.1862 15.5755 29.9219 15.5234 30.7031 15.5234C31.9661 15.5234 33.112 15.6927 34.1406 16.0312C35.1693 16.3568 36.0482 16.8451 36.7773 17.4961C37.5065 18.1341 38.0664 18.9349 38.457 19.8984C38.8607 20.862 39.0625 21.9688 39.0625 23.2188C39.0625 24.3516 38.9193 25.3737 38.6328 26.2852C38.3594 27.1836 37.9622 28.0234 37.4414 28.8047C36.9336 29.5859 36.3151 30.3281 35.5859 31.0312C34.8568 31.7344 34.043 32.457 33.1445 33.1992C32.3893 33.8112 31.6341 34.4102 30.8789 34.9961C30.1367 35.569 29.4661 36.1354 28.8672 36.6953C28.2682 37.2422 27.7799 37.7956 27.4023 38.3555C27.0378 38.9023 26.8555 39.4557 26.8555 40.0156V40.1133H39.4922V44Z" fill="#A4A7AE"/>
</svg>
